<?xml version="1.0" encoding="UTF-8" standalone="no"?>
<svg width="120px" height="120px" viewBox="0 0 120 120" version="1.1" xmlns="http://www.w3.org/2000/svg" xmlns:xlink="http://www.w3.org/1999/xlink">
    <!-- Generator: Sketch 3.6 (26304) - http://www.bohemiancoding.com/sketch -->
    <title>120 - iPhone</title>
    <desc>Created with Sketch.</desc>
    <defs></defs>
    <g id="Page-1" stroke="none" stroke-width="1" fill="none" fill-rule="evenodd">
        <g id="120---iPhone" fill="#2A5B83">
            <path d="M52.1953779,83.2635784 C34.9946831,83.2635784 21,69.2980339 21,52.1321836 C21,34.9655445 34.9946831,21 52.1953779,21 C69.396863,21 83.3907557,34.9655445 83.3907557,52.1321836 C83.3907557,69.2980339 69.396863,83.2635784 52.1953779,83.2635784 L52.1953779,83.2635784 Z M52.1953779,23.3665066 C36.3020656,23.3665066 23.3713103,36.2702785 23.3713103,52.1321836 C23.3713103,67.9932999 36.3020656,80.8970718 52.1953779,80.8970718 C68.0894806,80.8970718 81.0194454,67.9932999 81.0194454,52.1321836 C81.0194454,36.2702785 68.0894806,23.3665066 52.1953779,23.3665066 L52.1953779,23.3665066 Z" id="Instagram-Circle"></path>
            <path d="M63.996599,37.5939445 L41.9062623,37.5939445 C40.003681,37.5939445 38.4615389,39.1290185 38.4615389,41.0238015 L38.4615389,63.0851652 C38.4615389,64.9791593 40.003681,66.5150221 41.9062623,66.5150221 L63.996599,66.5150221 C65.8991803,66.5150221 67.4413224,64.9791593 67.4413224,63.0851652 L67.4413224,41.0238015 C67.4413224,39.1290185 65.8991803,37.5939445 63.996599,37.5939445 L63.996599,37.5939445 Z M59.2911288,42.1123945 C59.2911288,41.6138505 59.6966229,41.208389 60.1961789,41.208389 L62.9129101,41.208389 C63.4132566,41.208389 63.8187507,41.6138505 63.8187507,42.1123945 L63.8187507,44.8236223 C63.8187507,45.3229552 63.4132566,45.7276278 62.9129101,45.7276278 L60.1961789,45.7276278 C59.6966229,45.7276278 59.2911288,45.3229552 59.2911288,44.8236223 L59.2911288,42.1123945 L59.2911288,42.1123945 Z M52.9850242,46.5393396 C56.062985,46.5393396 58.5583939,49.0241716 58.5583939,52.08722 C58.5583939,55.1526349 56.062985,57.6366781 52.9850242,57.6366781 C49.9078538,57.6366781 47.4124449,55.1526349 47.4124449,52.08722 C47.4124449,49.0241716 49.9078538,46.5393396 52.9850242,46.5393396 L52.9850242,46.5393396 Z M64.7245912,62.8997888 C64.7245912,63.3983329 64.3190972,63.8037944 63.8187507,63.8037944 L42.0841106,63.8037944 C41.5837641,63.8037944 41.1782701,63.3983329 41.1782701,62.8997888 L41.1782701,49.3428611 L44.8008418,49.3428611 C44.3289511,50.0204709 44.1692828,51.2849743 44.1692828,52.08722 C44.1692828,56.9275149 48.1246285,60.865382 52.9850242,60.865382 C57.8462104,60.865382 61.801556,56.9275149 61.801556,52.08722 C61.801556,51.2849743 61.6869427,50.0394029 61.1020195,49.3428611 L64.7245912,49.3428611 L64.7245912,62.8997888 L64.7245912,62.8997888 Z" id="Instagram"></path>
        </g>
    </g>
</svg>