<?xml version="1.0" encoding="UTF-8" standalone="no"?>
<svg width="120px" height="120px" viewBox="0 0 120 120" version="1.1" xmlns="http://www.w3.org/2000/svg" xmlns:xlink="http://www.w3.org/1999/xlink">
    <!-- Generator: Sketch 3.6 (26304) - http://www.bohemiancoding.com/sketch -->
    <title>120 - iPhone</title>
    <desc>Created with Sketch.</desc>
    <defs></defs>
    <g id="Page-1" stroke="none" stroke-width="1" fill="none" fill-rule="evenodd">
        <g id="120---iPhone">
            <path d="M52.1953779,83.2635784 C34.9946831,83.2635784 21,69.2980339 21,52.1321836 C21,34.9655445 34.9946831,21 52.1953779,21 C69.396863,21 83.3907557,34.9655445 83.3907557,52.1321836 C83.3907557,69.2980339 69.396863,83.2635784 52.1953779,83.2635784 L52.1953779,83.2635784 Z M52.1953779,23.3665066 C36.3020656,23.3665066 23.3713103,36.2702785 23.3713103,52.1321836 C23.3713103,67.9932999 36.3020656,80.8970718 52.1953779,80.8970718 C68.0894806,80.8970718 81.0194454,67.9932999 81.0194454,52.1321836 C81.0194454,36.2702785 68.0894806,23.3665066 52.1953779,23.3665066 L52.1953779,23.3665066 Z" id="Instagram-Circle" fill="#2A5B83"></path>
            <path d="M45.5239258,36.9069779 L53.3538291,32.0436976 L53.1275537,42.5611009 L58.7902487,42.6148975 L58.7902482,48.9078153 L52.9987607,48.6700793 C52.9987607,48.6700793 52.5629948,63.7821021 52.9987604,65.5225993 C53.434526,67.2630965 58.4493831,65.5226001 58.4493831,65.5226001 L59.2637808,71.8113301 C59.2637808,71.8113301 53.0213562,73.8504469 49.4167666,72.4501241 C45.8121771,71.0498014 45.1759589,68.2539887 45.1472305,66.4977044 C45.1185021,64.74142 45.1759588,48.9651554 45.1759588,48.9651554 L41.5513562,48.9078153 L41.5513562,42.7327993 L45.5239256,42.7327993 L45.5239258,36.9069779 Z" id="Path-205" stroke="#2A5B83" stroke-width="2"></path>
        </g>
    </g>
</svg>